<?xml version="1.0" encoding="UTF-8"?>
<svg id="Camada_1" data-name="Camada 1" xmlns="http://www.w3.org/2000/svg" viewBox="0 0 968.13 373.84">
  <defs>
    <style>
      .cls-1 {
        fill: #f3b4ac;
      }

      .cls-1, .cls-2, .cls-3, .cls-4, .cls-5, .cls-6 {
        fill-rule: evenodd;
      }

      .cls-2, .cls-7 {
        fill: #89b8db;
      }

      .cls-3, .cls-8 {
        fill: #eb6347;
      }

      .cls-4, .cls-9 {
        fill: #6bc183;
      }

      .cls-5 {
        fill: #faae32;
      }

      .cls-6 {
        fill: #f3d90d;
      }
    </style>
  </defs>
  <path class="cls-9" d="M349.53,195.31c3.3-2.27,6.6-3.4,9.9-3.4,7.63,0,14.43,4.84,20.41,14.53,1.65,2.47,5.46,11.39,11.44,26.75,5.98,15.36,9.48,23.96,10.51,25.82,3.09,4.95,7.83,16.54,14.22,34.79,6.39,18.24,9.59,29.32,9.59,33.24,0,5.36-1.55,9.59-4.64,12.68-3.09,3.09-7.42,4.64-12.99,4.64-7.53,0-62.32-2.78-101.12-2.78-4.33,0-8.35-1.86-12.06-5.57-3.71-3.71-5.57-7.73-5.57-12.06,0-5.98,3.81-16.18,11.44-30.61,6.18-11.54,15.36-30.92,27.52-58.13,10.72-24.12,17.83-37.42,21.34-39.89"/>
  <path class="cls-2" d="M885.53,258.18c3.47-1.91,6.6-2.78,9.28-2.78,24.72,0,19.91,52.64,19.91,70.25,0,28.65-.42,23.3-1.04,28.56-.62,5.26-2.58,9.53-5.88,12.83-4.54,4.54-9.48,6.8-14.84,6.8-31.95,0-21.72-29.77-21.65-48.81.13-33.81,3.17-51.11,4.94-56.64,1.33-4.16,4.51-7.58,9.28-10.2"/>
  <path class="cls-4" d="M778.3,80.08s-2.51-46.21,14.67-56.02c17.17-9.81,34.69,48.89,34.69,48.89,0,0,38.86-7.42,49.79,12.81,10.93,20.22-39.22,34.59-39.22,34.59,0,0,30.37,29.68,15.09,40.87-15.28,11.19-57.61-32.1-57.61-32.1,0,0-39.89,45.93-53.67,32.99-13.79-12.93,21.55-46.78,21.55-46.78,0,0-37.35-3.54-39.1-19.53-1.75-15.99,53.81-15.71,53.81-15.71"/>
  <path class="cls-8" d="M109.12,7.48c8.51,5.34,16.62,11.02,23.92,17.49,9.97,8.83,15.13,15.68,17.29,15.68,1.92,0,8.5-4.15,19.78-12.39,19.65-14.35,32.93-23.75,42.04-23.75,29.54,0,19.83,66.69,19.47,82.41-.95,42.27-3,65.83-6.12,70.69-4.32,6.56-9.95,9.84-16.91,9.84-28.5,0-21.25-2.26-22.06-25.14-.23-6.56-.63-9.84-1.2-9.84-1.92,0-6.47,2.55-13.67,7.65-7.19,5.1-14.75,7.65-22.66,7.65s-14.75-2.55-21.22-7.65c-4.8-3.64-8.39-5.47-10.79-5.47h-.72c-.38.57-.41,2.65-.91,6.15-1.85,13.08-9.03,13.26-20.79,12.44-6.94-.49-12.23-2.67-15.83-8.02-2.16-3.16-3.66-8.74-4.5-16.76-.84-8.02-1.62-25.14-2.34-51.38-.72-17.25-1.08-30.49-1.08-39.72,0-12.63,1.48-22.97,3.04-26.61,7.45-17.41,24.53-10.01,35.25-3.28"/>
  <path class="cls-3" d="M915.55,27.53c3.59-2.97,19.39-10.94,34.14,20.81,19.32,41.57,22.03,68.67,14.66,112.95-2.48,14.93-6.5,26.19-12.98,24.54-9.43-2.4-5.25-5.59-6.32-29-1.19-26.22-6.14-75.05-20.51-95.64-12.56-17.98-15.41-23.51-9-33.66"/>
  <path class="cls-2" d="M203.66,236.41c4.14-5.99,30.04-31.95,39.36-31.95s31.07-2,33.14,15.98c2.07,17.97,5.18,27.96,7.25,50.92,2.07,22.96-3.11,30.95-14.5,48.07-22.28,26.33-88.86-48.86-65.25-83.02"/>
  <path class="cls-1" d="M307,120.05c-12.35-12.35-17.28-50.62-14.81-59.26,2.47-8.64,28.39-28.39,35.8-28.39s35.8-11.11,39.51,7.41c3.7,18.52,7.41,30.86,7.41,44.44s-7.41,49.38-27.16,55.56c-19.76,6.18-40.74-19.75-40.74-19.75"/>
  <path class="cls-5" d="M67.63,253.93s-6.69-52.78,13.38-57.98c20.07-5.2,34.19,40.88,36.42,50.54,2.23,9.66,63.92-38.65,67.64-12.64,3.72,26.02-35.68,43.86-35.68,43.86,0,0,46.08,20.81,28.24,37.16-17.84,16.35-69.13-23.04-69.13-23.04,0,0-11.89,55.75-37.16,47.57-25.27-8.17-2.97-58.72-2.97-58.72,0,0-58.72,18.58-67.64,0-8.92-18.59,66.9-26.76,66.9-26.76"/>
  <path class="cls-3" d="M566.32,282.22s6.46-57.23,26.31-60.46c19.85-3.23,25.38,45.23,25.38,45.23,0,0,57.69-14.31,65.08,4.62,7.38,18.92-52.61,33.69-52.61,33.69,0,0,68.31,35.08,48.92,49.38-19.38,14.31-71.54-28.61-71.54-28.61,0,0-7.85,47.07-29.54,45.69-21.69-1.38-.92-55.38-.92-55.38,0,0-44.77,10.15-49.38-1.85-4.62-12,18-29.54,38.31-32.31"/>
  <path class="cls-1" d="M734.66,277.33c16.5-20.2,40.71-43.94,61.66-41.15,35.83,4.78,33.75,80.9,22.29,96.38-6.06,8.19-31.72,18.23-59.29,11.27-51.24-12.93-50.56-34.79-24.66-66.51"/>
  <path class="cls-5" d="M558.99,81.84c2.36-23.6,45.85-35.57,60.18-36.94,14.33-1.36,24.57,6.82,28.66,18.42,4.09,11.6,6.14,21.84,6.14,39.58s-3.41,24.57-14.33,38.21c-10.92,13.65-8.19,23.88-24.56,30.02-46.66,17.5-59.62-53.93-56.09-89.3"/>
  <path class="cls-6" d="M473.29,353c5.22-.2,6.23.8,11.45-19.49,5.22-20.29,17.88-47.41,33.15-65.29,15.27-17.88,36.76-31.94,39.98-41.18,3.21-9.24-5.83-23.5-25.11-11.45-19.29,12.05-39.18,33.55-51.63,62.68-12.46,29.13-17.68,67.7-15.27,70.92,2.41,3.21,7.43,3.82,7.43,3.82"/>
  <path class="cls-7" d="M459.82,33.1c9.79-4.09,20.87-6.15,30.56-6.75,13.25-.81,26.44,3.62,28.87,13.14,8.72,34.09-36.5,32.26-37.3,58.41-.95,31,45.52,16.82,29.96,64.8-2.81,8.67-10.9,14.91-27.02,14.91s-31.37-4.51-45.57-13.53c-14.19-9.02-23.81-20.74-28.85-35.17-2.65-7-3.98-14.96-3.98-23.87,0-14.43,3.32-26.95,9.95-37.56,4.51-6.79,10.94-13.53,19.3-20.21,8.36-6.68,16.54-11.01,24.08-14.16"/>
</svg>