<?xml version="1.0" encoding="UTF-8"?>
<svg id="Camada_1" data-name="Camada 1" xmlns="http://www.w3.org/2000/svg" viewBox="0 0 759.89 471.04">
  <defs>
    <style>
      .cls-1 {
        fill: #f3b4ac;
      }

      .cls-1, .cls-2, .cls-3, .cls-4, .cls-5, .cls-6 {
        fill-rule: evenodd;
      }

      .cls-2, .cls-7 {
        fill: #89b8db;
      }

      .cls-3, .cls-8 {
        fill: #eb6347;
      }

      .cls-4, .cls-9 {
        fill: #6bc183;
      }

      .cls-5, .cls-10 {
        fill: #faae32;
      }

      .cls-6 {
        fill: #f3d90d;
      }
    </style>
  </defs>
  <path class="cls-9" d="M683.82,204.09c3.3-2.27,6.6-3.4,9.9-3.4,7.63,0,14.43,4.84,20.41,14.53,1.65,2.47,5.46,11.39,11.44,26.75,5.98,15.36,9.48,23.96,10.51,25.82,3.09,4.95,7.83,16.54,14.22,34.79,6.39,18.24,9.59,29.32,9.59,33.24,0,5.36-1.55,9.59-4.64,12.68-3.09,3.09-7.42,4.64-12.99,4.64-7.53,0-62.32-2.78-101.12-2.78-4.33,0-8.35-1.86-12.06-5.57-3.71-3.71-5.57-7.73-5.57-12.06,0-5.98,3.81-16.18,11.44-30.61,6.18-11.54,15.36-30.92,27.52-58.13,10.72-24.12,17.83-37.42,21.34-39.89"/>
  <path class="cls-7" d="M579.39,255.98c9.79-4.09,20.87-6.15,30.56-6.75,13.25-.81,26.44,3.62,28.87,13.14,8.72,34.09-36.5,32.26-37.3,58.41-.95,31,45.52,16.82,29.96,64.8-2.81,8.67-10.9,14.91-27.02,14.91s-31.37-4.51-45.57-13.53c-14.19-9.02-23.81-20.74-28.85-35.17-2.65-7-3.98-14.96-3.98-23.87,0-14.43,3.32-26.95,9.95-37.56,4.51-6.79,10.94-13.53,19.3-20.21,8.36-6.68,16.54-11.01,24.08-14.16"/>
  <path class="cls-10" d="M301.21,186.92c1.77-.29,3.5-.15,5.2.42,4.3,1.45,6.2,5.21,5.71,11.29-.35,3.67-2.11,10.2-5.29,19.6-2.33,6.9-3.9,11.13-4.71,12.69-.81,1.57-2.11,2.71-3.92,3.44-2.34.99-4.56,1.13-6.66.42-2.8-.95-4.66-2.86-5.58-5.73-.72-2.47.49-9.36,3.64-20.66,1.32-4.9,2.46-8.75,3.4-11.55,1.28-3.8,2.5-6.34,3.66-7.62,1.16-1.28,2.67-2.05,4.54-2.31M280.92,248.76c2.95-2.71,6.05-4.3,9.32-4.76,7.55-1.07,14.97,2.76,22.25,11.51,1.98,2.22,7.01,10.51,15.09,24.87,8.08,14.36,12.76,22.39,14.05,24.08,3.76,4.46,10.09,15.28,18.98,32.44,8.9,17.16,13.62,27.68,14.17,31.56.75,5.31-.18,9.71-2.81,13.2-2.62,3.49-105.16,16.83-112.7,17.91-4.29.61-8.53-.66-12.72-3.81-4.2-3.15-6.6-6.87-7.21-11.16-.84-5.92,1.5-16.56,7.02-31.92,4.5-12.3,10.85-32.78,19.06-61.43,7.22-25.39,12.38-39.55,15.51-42.5Z"/>
  <path class="cls-6" d="M139.73,151.26c4.06-.16,4.84.62,8.9-15.14,4.06-15.76,13.89-36.83,25.75-50.72,11.86-13.89,28.56-24.81,31.06-31.99,2.5-7.18-4.53-18.26-19.51-8.9-14.98,9.36-30.43,26.06-40.11,48.69-9.68,22.63-13.73,52.59-11.86,55.09,1.87,2.5,5.77,2.97,5.77,2.97"/>
  <path class="cls-1" d="M20.94,6.82c2.4-3.99,14.64-16.77,39.12,8.25,32.06,32.76,43.65,57.42,51.44,101.62,2.63,14.9,2.59,26.86-4.06,27.46-9.69.88-6.81-3.52-15.61-25.24-9.86-24.33-30.78-68.72-51.19-83.35C22.8,22.79,18.27,18.53,20.94,6.82"/>
  <path class="cls-3" d="M103.28,12.28c.45-4.52,8.77-6.81,11.52-7.07,2.74-.26,4.7,1.31,5.49,3.53s1.18,4.18,1.18,7.57-.65,4.7-2.74,7.31c-2.09,2.61-1.57,4.57-4.7,5.75-8.93,3.35-11.41-10.32-10.73-17.09"/>
  <path class="cls-2" d="M135.95,60.63c.52-.76,3.79-4.03,4.96-4.03s3.92-.25,4.18,2.01c.26,2.27.65,3.52.91,6.42.26,2.9-.39,3.9-1.83,6.06-2.81,3.32-11.2-6.16-8.23-10.47"/>
  <path class="cls-4" d="M119.72,98.09c-1.31-1.31-1.83-5.35-1.57-6.27.26-.91,3-3,3.79-3s3.79-1.18,4.18.78c.39,1.96.78,3.26.78,4.7s-.78,5.22-2.87,5.88c-2.09.65-4.31-2.09-4.31-2.09"/>
  <path class="cls-5" d="M148.68,22.33s-.89-7.01,1.78-7.7c2.67-.69,4.54,5.43,4.84,6.71.3,1.28,8.49-5.13,8.99-1.68.49,3.46-4.74,5.83-4.74,5.83,0,0,6.12,2.76,3.75,4.94-2.37,2.17-9.18-3.06-9.18-3.06,0,0-1.58,7.41-4.94,6.32-3.36-1.09-.39-7.8-.39-7.8,0,0-7.8,2.47-8.99,0-1.18-2.47,8.89-3.56,8.89-3.56"/>
  <path class="cls-5" d="M34.79,79.64s1.5-13.26,6.09-14c4.6-.75,5.88,10.48,5.88,10.48,0,0,13.36-3.31,15.07,1.07,1.71,4.38-12.19,7.8-12.19,7.8,0,0,15.82,8.12,11.33,11.44-4.49,3.31-16.57-6.63-16.57-6.63,0,0-1.82,10.9-6.84,10.58-5.02-.32-.21-12.83-.21-12.83,0,0-10.37,2.35-11.44-.43-1.07-2.78,4.17-6.84,8.87-7.48"/>
  <path class="cls-1" d="M223.66,60.49c2.7-3.3,6.66-7.18,10.08-6.73,5.86.78,5.52,13.22,3.64,15.76-.99,1.34-5.19,2.98-9.69,1.84-8.38-2.11-8.27-5.69-4.03-10.87"/>
  <path class="cls-5" d="M189.91,92.74s3.4-11.01,8.25-11.81c4.85-.81,3.88,14.4,3.88,14.4,0,0,9.71,1.62,10.52,7.28.81,5.66-12.14,4.69-12.14,4.69,0,0,4.53,9.55,0,10.84-4.53,1.29-10.68-12.46-10.68-12.46,0,0-13.27,7.28-15.37,3.08-2.1-4.21,9.06-9.06,9.06-9.06,0,0-8.42-4.05-7.44-7.93.97-3.88,13.92.97,13.92.97"/>
  <path class="cls-4" d="M13.91,42.86c.26-2.62,5.09-3.95,6.68-4.1,1.59-.15,2.73.76,3.18,2.04.45,1.29.68,2.42.68,4.39s-.38,2.73-1.59,4.24c-1.21,1.51-.91,2.65-2.73,3.33-5.18,1.94-6.61-5.98-6.22-9.91"/>
  <path class="cls-1" d="M404.94,261.83c-5.35,9.28-6.14,21.51-6.84,32.09-.5,7.49-.28,14.74,1.23,22.13.73,3.56,2.01,8.19,4.22,11.15,2.93,3.92,6.65,5.82,11.61,5.67,3.39-.11,6.83-1.71,9.81-3.21,2.66-1.34,5.06-3.09,6.97-5.39.35-.42.72-.85,1.12-1.31-1.99.13-3.98.28-5.97.44-2.06.17-4.11.35-6.17.46-4.66.26-9.13-1-12.86-3.82-3.9-2.94-6.37-7.05-6.78-11.95-.42-4.96,1.39-9.47,4.92-12.95,3.33-3.29,7.65-5.06,12.29-5.36,1.65-.11,3.3-.16,4.96-.3,4.37-.38,8.74-.67,13.12-.87,3.78-.17,7.57-.07,11.34.23,4.68.37,9.24,1.48,13.53,3.39,3.93,1.76,7.25,4.41,9.82,7.86,2.92,3.92,4.3,8.6,4.1,13.49-.23,5.87-1.88,11.67-4.05,17.09-2.51,6.27-6.06,9.83-10.29,14.8-5.08,5.98-11.44,10.59-18.39,14.17-8.35,4.3-17.16,7.1-26.61,7.35-8.25.22-15.87-2.19-23.43-5.21-7.99-3.19-14.59-8.43-19.7-15.35-11.48-15.52-12.63-37.51-11.29-56.06.57-7.94,1.78-15.82,3.81-23.52,2.02-7.66,4.98-15.02,8.99-21.86,4.28-7.28,10.1-13.29,17.12-17.98,8.02-5.36,17.28-7.55,26.85-7.61h.13s.13,0,.13,0c9.08.24,18.38,2.04,26.12,7.03,6.33,4.08,11.66,9.29,15.3,15.93,2.63,4.8,3.64,7.46,4.68,12.78.78,3.98,1.44,8.18,1.53,12.24.11,4.8-1.69,9.16-5.16,12.48-3.41,3.26-7.74,4.99-12.44,5.2-4.68.21-9.15-1.15-12.85-4.03-3.87-3.01-6.27-7.19-6.58-12.12-.15-2.47-.42-4.9-.9-7.32-.12-.62-.23-1.36-.39-1.97-.23-.52-.58-1.11-.85-1.61-.75-1.38-1.76-2.45-3.08-3.3-1.53-.99-4.26-1.23-6.02-1.26h-.08s-.08,0-.08,0c-4.98-.19-10.48,4.54-12.88,8.36"/>
  <path class="cls-8" d="M59.2,125.95c13.16,8.26,25.69,17.03,36.98,27.04,15.41,13.66,23.39,24.25,26.72,24.25,2.97,0,13.14-6.41,30.59-19.15,30.38-22.18,50.91-36.72,65-36.72,45.66,0,30.65,103.1,30.1,127.41-1.48,65.34-4.63,101.77-9.45,109.28-6.67,10.14-15.39,15.21-26.14,15.21-44.06,0-34.2-22.93-35.44-58.3-.36-10.14-.98-15.22-1.86-15.22-2.97,0-10.01,3.94-21.13,11.83-11.12,7.89-22.8,11.83-35.04,11.83s-22.74-4.02-32.81-11.83c-7.36-5.71-12.98-8.45-16.68-8.45h-1.11c-.58.88.7,23.53-.06,28.94-2.87,20.22-13.96,20.5-32.15,19.23-10.73-.75-18.91-4.13-24.47-12.39-3.34-4.88-5.65-13.52-6.95-25.91-1.3-12.39-2.5-38.87-3.61-79.42-1.11-26.66-1.67-47.13-1.67-61.4,0-19.53,2.29-35.51,4.7-41.15,11.51-26.91,37.92-15.47,54.5-5.07"/>
  <path class="cls-8" d="M751.66,436.76c-1.1.49-2.3.78-3.6.9-1.3.11-2.61-.07-3.94-.54-3.59-1.12-5.72-3.57-6.4-7.35-.08-.49-.12-.87-.11-1.14.07-.43.29-.62.64-.58,1.08.05,2.14.15,3.18.28.19-.02.37.17.54.55l.06.37.07.17c.26,1.2.89,2.14,1.88,2.82.99.68,2.14,1,3.43.96,1,.02,1.96-.17,2.9-.59.88-.39,1.69-.96,2.41-1.7.72-.75,1.23-1.61,1.52-2.6.63-1.86.13-3.38-1.52-4.57-.47-.32-.96-.57-1.46-.74-.5-.17-1.02-.34-1.55-.5-.8-.17-1.6-.3-2.39-.38-.79-.08-1.59-.14-2.4-.18-.94-.05-1.86-.07-2.75-.07-.89,0-1.82-.06-2.78-.16-.81-.04-1.62-.13-2.44-.26-.82-.13-1.65-.34-2.5-.63-3.58-1.25-5.85-3.65-6.81-7.17-1.58-5.82-.48-11.18,3.3-16.06,1.52-1.92,3.41-3.18,5.65-3.77,2.24-.59,4.34-.39,6.28.59,1.8.79,3.28,2.11,4.46,3.96,1.18,1.85,1.75,3.94,1.72,6.26.02.65-.28.94-.89.89-.32.01-.67.01-1.03,0-.36,0-.72-.03-1.07-.07-.56-.08-.92-.17-1.06-.27-.14-.1-.25-.46-.33-1.09-.1-.68-.25-1.31-.43-1.88-.19-.58-.47-1.14-.85-1.7-.83-1.15-1.81-1.92-2.94-2.31-1.13-.39-2.27-.33-3.43.18-.5.22-1.01.54-1.54.98-.79.61-1.46,1.35-2.03,2.23-.57.88-1.02,1.83-1.36,2.87-.33,1.04-.55,2.08-.64,3.15-.09,1.06-.09,2.07,0,3.01.06.43.15.84.28,1.21.13.37.25.76.37,1.17.74,1.98,2.11,3.22,4.11,3.72,1.2.33,2.31.53,3.33.61.89.07,1.75.12,2.58.15.84.03,1.66.06,2.46.1,1.73.03,3.52.21,5.38.55,1.86.33,3.55.96,5.07,1.87,1.67,1.11,2.83,2.54,3.47,4.3.64,1.76.63,3.61-.03,5.54-1.07,3.1-3.34,5.42-6.82,6.95M721.5,413.81c-.13-.53-.35-1.06-.64-1.61-.29-.55-.66-1.03-1.11-1.44-.45-.42-.93-.74-1.46-.98-.53-.24-1.08-.28-1.67-.14-.82.21-1.47.75-1.97,1.62-.49.87-.85,1.85-1.07,2.93-.22,1.08-.37,2.16-.44,3.23-.07,1.07-.08,1.95-.03,2.62.03.61.34.97.92,1.07.89.08,1.83,0,2.83-.25,1.64-.41,2.93-1.27,3.87-2.57.95-1.3,1.2-2.79.77-4.49ZM709.78,428.25c-.3-1.17-.55-2.47-.76-3.91-.21-1.44-.33-2.9-.37-4.38-.03-1.48.02-2.93.16-4.33.14-1.4.43-2.72.86-3.95.45-1.42,1.16-2.73,2.12-3.94.97-1.21,2.21-2.01,3.73-2.39,1.87-.47,3.68-.19,5.44.86,1.39.83,2.53,1.88,3.41,3.14.88,1.27,1.43,2.65,1.66,4.15.22,1.5.12,3-.3,4.51-.43,1.51-1.26,2.88-2.5,4.13-1.09,1.09-2.27,1.9-3.53,2.43-1.26.54-2.62.87-4.08.99-.25,0-.48,0-.7,0-.22,0-.45.02-.68.08-.29.07-.44.24-.44.48,0,.25.02.46.07.64.37,1.71.85,3.34,1.43,4.91.58,1.56,1.34,3.06,2.26,4.51.84,1.34,1.8,2.43,2.88,3.28.62.47,1.3.85,2.06,1.15s1.55.35,2.37.15c.88-.22,1.55-.74,2.03-1.54.48-.81.81-1.71.99-2.72.18-1.01.23-2.05.14-3.11-.08-1.07-.21-1.95-.39-2.65-.13-.53-.29-1.06-.46-1.61-.17-.55-.33-1.11-.48-1.7-.25-.5-.13-.87.37-1.12.6-.34,1.08-.63,1.45-.88.37-.25.7-.41,1-.49.47-.12.8.03,1,.45.2.42.5,1.19.92,2.33.9,2.82,1.2,5.69.88,8.63-.18,1.97-.8,3.78-1.84,5.41-1.05,1.63-2.59,2.71-4.64,3.23-1.58.4-3.1.34-4.57-.19-1.47-.53-2.83-1.29-4.07-2.28-.81-.73-1.54-1.52-2.19-2.38-.65-.86-1.25-1.75-1.8-2.67-.84-1.34-1.52-2.74-2.04-4.19-.52-1.45-.99-3.12-1.41-5ZM702.47,449.66c-1.54.27-2.87-.04-3.98-.95-1.11-.91-1.93-2.01-2.47-3.33-.93-1.79-1.66-3.68-2.2-5.67-.53-1.99-.94-3.96-1.32-5.92-2.26-11.59-1.24-6.14-3.08-17.8-.7-4.46-.58-4.43-.92-9.08-.09-1.27-.04-2.01.2-2.24.24-.22.97-.31,2.2-.3.06,0,.12,0,.19.06l.36-.06c.07.05.13.06.19.06.5.02.83.13,1.01.28.18.15.21.48.22.97.07,3.1.39,6.19.81,9.26.42,3.08.23,1.54.76,4.57.18.33.42.45.72.42.54-.06,1.08-.1,1.62-.19.53-.09,1.04-.21,1.51-.27.78-.1,1.21.22,1.35.86.2.94.38,1.65.47,2.12.08.47.05.82-.09,1.03-.15.21-.43.34-.85.38-.42.04-1.05.14-1.88.29-.59.1-1.02.25-1.32.33-.47.12-.63.36-.59.84.03.31.01.58.05.82.04.24.09.47.13.71.73,4.46-.32-1.71.48,2.62.8,4.33.43,2.14,1.43,6.49.31,1.35.68,2.8,1.14,4.34.46,1.54,1.07,2.92,1.83,4.13.74,1.09,1.41,1.07,2.01-.08.37-.68.63-1.35.79-2.02.16-.67.29-1.38.4-2.14l.06-1.75.12-.85c.07-.62.41-.96,1.02-1.01l2.5.11c.54-.03.81.28.81.96-.02.92-.1,2.04-.23,3.35-.14,1.31-.42,2.57-.85,3.77-.43,1.21-1,2.27-1.73,3.2-.72.92-1.68,1.49-2.87,1.7ZM669.68,427.45l.47-1.65c.41-1.77.84-3.53,1.31-5.3.47-1.77,1.03-3.51,1.68-5.23.22-.55.48-1.18.78-1.89.3-.71.67-1.36,1.09-1.95.43-.59.9-1.11,1.43-1.55.52-.44,1.15-.68,1.87-.71.66-.03,1.3.17,1.92.6.62.43,1.19,1.08,1.71,1.96.65,1.06,1.29,2.64,1.92,4.76.63,2.11,1.21,4.35,1.74,6.71.52,2.36.98,4.65,1.38,6.86.4,2.21.71,3.95.95,5.21l1.77,9.69c.15.78.29,1.56.42,2.33.12.78.26,1.59.42,2.42.07.18.11.48.13.9.14.54-.08.88-.68,1.02l-2.7.39c-.48.08-.79-.18-.94-.77-.16-.84-.3-1.66-.42-2.47-.13-.81-.27-1.63-.42-2.47-.79-4.43-1.58-8.81-2.37-13.15-.79-4.34-1.76-8.68-2.91-13.04-.15-.66-.33-1.34-.54-2.06-.21-.71-.42-1.4-.63-2.05l-.6-1.24c-.47.32-1,1.32-1.59,3.01-.59,1.68-1.18,3.71-1.77,6.09-.59,2.38-1.16,4.95-1.7,7.72-.54,2.77-1.02,5.46-1.42,8.07-.4,2.61-.72,4.98-.96,7.1-.24,2.12-.34,3.69-.3,4.72-.04.54-.13.89-.27,1.05-.14.16-.46.25-.94.27-.3.07-.63.12-.99.13-.36.02-.69.03-.99.04-.42-.04-.7-.12-.82-.24-.13-.12-.26-.32-.39-.62v-.27s-.13-.63-.13-.63v-.27c-.31-5.47-.68-10.9-1.12-16.28-.44-5.38-.87-10.8-1.29-16.27l-.58-7.3c-.02-.48.04-.8.19-.96.14-.16.46-.28.93-.36.84-.04,1.47-.08,1.89-.13.42-.05.72,0,.91.14.19.14.3.41.35.8.05.39.09.98.12,1.76.09.6.14,1.2.17,1.8.03.6.08,1.2.17,1.8l.67,7.21c.09.6.14,1.2.17,1.8.03.6.08,1.2.17,1.8l.02.36.13.81c0,.18.04.33.11.45l.27-.1c.17-.31.25-.58.24-.82ZM653.73,422.53c0-.54-.09-1.11-.25-1.71-.16-.6-.41-1.15-.75-1.66-.34-.51-.74-.94-1.19-1.29-.46-.35-.99-.53-1.59-.52-.84.01-1.61.38-2.29,1.12-.68.73-1.26,1.6-1.73,2.6-.47,1-.86,2.02-1.18,3.04-.32,1.03-.53,1.88-.64,2.54-.11.6.1,1.02.65,1.26.85.29,1.78.43,2.81.41,1.69-.02,3.14-.56,4.36-1.6,1.22-1.04,1.82-2.44,1.79-4.18ZM638.98,433.85c-.02-1.2.04-2.53.17-3.98.13-1.45.35-2.9.66-4.35.31-1.45.7-2.84,1.16-4.17.46-1.33,1.05-2.55,1.76-3.64.77-1.28,1.76-2.39,2.98-3.34,1.22-.95,2.62-1.44,4.18-1.46,1.93-.03,3.62.67,5.09,2.1,1.16,1.13,2.02,2.41,2.58,3.85.56,1.44.78,2.91.65,4.42-.13,1.51-.58,2.95-1.34,4.31-.76,1.37-1.89,2.51-3.39,3.44-1.31.8-2.65,1.32-4,1.55-1.35.23-2.75.23-4.2.01-.24-.06-.47-.11-.68-.17-.21-.06-.44-.08-.68-.08-.3,0-.48.13-.54.37-.06.24-.08.45-.08.63-.04,1.75.05,3.45.25,5.1.2,1.65.59,3.29,1.15,4.91.5,1.5,1.18,2.79,2.04,3.86.49.6,1.07,1.13,1.74,1.6s1.43.7,2.27.69c.9-.01,1.68-.35,2.34-1.03.65-.67,1.18-1.48,1.59-2.42.41-.94.7-1.94.86-2.99.17-1.06.24-1.95.23-2.67,0-.54-.03-1.1-.07-1.67-.04-.57-.06-1.16-.07-1.76-.13-.54.08-.87.62-1,.66-.19,1.2-.36,1.62-.52.42-.16.78-.24,1.08-.24.48,0,.77.22.87.67.1.45.21,1.28.35,2.48.22,2.95-.16,5.82-1.14,8.6-.64,1.88-1.65,3.49-3.05,4.83-1.4,1.35-3.15,2.03-5.26,2.06-1.63.02-3.09-.39-4.4-1.25-1.31-.86-2.45-1.91-3.43-3.16-.62-.9-1.14-1.84-1.58-2.83-.44-.99-.81-1.99-1.13-3.01-.5-1.5-.84-3.02-1.01-4.55-.17-1.53-.24-3.27-.21-5.19ZM623,453.18c-1.2-.1-2.4-.41-3.6-.93-1.2-.52-2.26-1.31-3.2-2.35-2.62-2.7-3.32-5.87-2.11-9.52.16-.47.31-.82.45-1.05.27-.34.55-.41.83-.2.92.56,1.81,1.15,2.66,1.76.18.08.25.32.21.74l-.12.35v.18c-.36,1.18-.25,2.31.29,3.38.55,1.07,1.4,1.9,2.56,2.48.87.5,1.81.79,2.83.87.96.08,1.94-.03,2.93-.34.99-.31,1.85-.83,2.58-1.55,1.44-1.33,1.72-2.91.85-4.74-.26-.51-.57-.95-.93-1.35-.36-.39-.74-.79-1.13-1.18-.62-.54-1.26-1.03-1.92-1.47-.66-.45-1.33-.88-2.02-1.3-.81-.49-1.6-.95-2.38-1.38-.78-.43-1.57-.92-2.37-1.47-.69-.42-1.36-.88-2.01-1.39-.65-.51-1.29-1.09-1.9-1.74-2.55-2.81-3.4-6-2.56-9.55,1.4-5.87,4.92-10.05,10.57-12.54,2.26-.96,4.51-1.17,6.76-.61,2.25.55,4,1.72,5.24,3.52,1.2,1.55,1.88,3.42,2.03,5.61.15,2.19-.34,4.29-1.48,6.32-.29.58-.69.7-1.21.35-.29-.15-.59-.31-.91-.48-.32-.18-.62-.37-.9-.57-.46-.34-.72-.59-.8-.75-.08-.16,0-.53.23-1.11.24-.65.41-1.27.52-1.86.11-.6.13-1.23.07-1.9-.19-1.41-.68-2.55-1.48-3.43-.8-.88-1.84-1.38-3.1-1.48-.54-.04-1.15,0-1.82.12-.98.16-1.93.49-2.85.99-.92.5-1.77,1.12-2.56,1.87-.79.75-1.48,1.57-2.06,2.46-.59.89-1.07,1.77-1.45,2.65-.16.41-.26.81-.33,1.2-.06.39-.14.79-.24,1.2-.3,2.09.32,3.84,1.83,5.23.9.86,1.77,1.57,2.63,2.12.75.49,1.48.94,2.2,1.36.72.42,1.43.84,2.12,1.26,1.5.85,2.99,1.87,4.46,3.05,1.47,1.18,2.66,2.53,3.56,4.06.94,1.77,1.27,3.58,1,5.43-.28,1.85-1.17,3.47-2.67,4.86-2.42,2.22-5.52,3.17-9.31,2.85ZM601.83,420.34c.04-.54.01-1.12-.09-1.73-.1-.61-.3-1.19-.59-1.72-.29-.54-.65-1-1.07-1.4-.42-.4-.93-.62-1.53-.66-.84-.07-1.64.23-2.38.9-.75.67-1.4,1.48-1.96,2.43-.56.95-1.04,1.93-1.45,2.92-.41,1-.7,1.82-.87,2.47-.17.59.01,1.03.53,1.31.82.37,1.74.59,2.76.67,1.68.13,3.18-.27,4.49-1.19,1.31-.93,2.04-2.26,2.17-4ZM586.09,430.26c.09-1.2.27-2.52.54-3.95.26-1.43.62-2.85,1.06-4.27.44-1.42.96-2.77,1.54-4.05.58-1.28,1.28-2.44,2.08-3.46.88-1.2,1.97-2.22,3.28-3.05,1.3-.83,2.74-1.19,4.3-1.07,1.92.15,3.55,1,4.88,2.56,1.05,1.23,1.79,2.59,2.22,4.07.43,1.48.51,2.97.24,4.46-.27,1.49-.84,2.88-1.73,4.17-.89,1.29-2.12,2.33-3.69,3.11-1.38.68-2.76,1.07-4.13,1.17-1.37.1-2.76-.02-4.19-.37-.24-.08-.46-.16-.66-.23-.21-.08-.43-.12-.67-.14-.3-.02-.49.08-.57.32-.08.24-.13.44-.14.62-.2,1.74-.27,3.44-.22,5.1.05,1.67.28,3.33.7,4.99.36,1.54.92,2.88,1.68,4.03.43.64.96,1.22,1.58,1.76.62.53,1.36.83,2.2.9.9.07,1.71-.2,2.42-.81.71-.61,1.32-1.36,1.81-2.26.49-.9.87-1.87,1.13-2.9.26-1.04.42-1.92.48-2.64.04-.54.07-1.1.09-1.67.01-.57.05-1.16.09-1.76-.08-.55.16-.86.71-.94.67-.13,1.23-.25,1.66-.37.43-.12.8-.16,1.1-.14.48.04.75.29.8.74.05.46.1,1.29.12,2.5-.05,2.96-.69,5.78-1.93,8.46-.81,1.81-1.97,3.32-3.48,4.53-1.51,1.21-3.32,1.73-5.43,1.57-1.62-.13-3.04-.68-4.27-1.65-1.22-.97-2.27-2.13-3.13-3.46-.53-.95-.97-1.93-1.31-2.96-.34-1.02-.62-2.06-.85-3.1-.36-1.54-.56-3.08-.59-4.62-.03-1.54.06-3.27.27-5.19ZM568.87,425.39c.34-.52.58-.97.7-1.35.12-.38.26-.75.41-1.1.41-1.3.81-2.58,1.22-3.85.41-1.27.81-2.55,1.22-3.85.4-1.24.99-2.56,1.77-3.98.78-1.42,1.74-2.5,2.89-3.26,1.08-.64,2.1-.92,3.06-.84,1.38.11,2.6.69,3.67,1.75,1.06,1.05,1.79,2.2,2.17,3.44.13.62-.11,1.02-.73,1.21-.06,0-.11,0-.14.03-.03.03-.11.04-.23.03l-.65.13c-.06,0-.12,0-.18.03-.06.03-.12.04-.18.03-.25.1-.47.17-.65.22-.19.05-.37.06-.55.05-.6-.05-1.05-.48-1.35-1.29-.04-.24-.29-.51-.75-.79-.45-.4-.94-.38-1.46.06-.46.45-.92,1.12-1.39,2.02-.47.9-.89,1.86-1.28,2.89-.39,1.03-.72,2.03-1.01,3-.29.97-.52,1.76-.69,2.35-.8,2.47-1.55,4.95-2.24,7.44-.68,2.48-1.37,5-2.06,7.54-.43,1.54-.77,3.11-1.02,4.72-.25,1.61-.53,3.19-.84,4.74-.11.6-.21,1.04-.29,1.34-.08.3-.22.51-.41.65-.19.14-.44.21-.74.21-.3,0-.75-.02-1.35-.06h-.18s-.37.05-.37.05h-.18c-.6-.12-.95-.24-1.06-.37-.11-.13-.17-.5-.18-1.1.1-2.71.18-5.4.24-8.05.06-2.65.12-5.34.15-8.06.13-3.8.25-7.58.38-11.35.12-3.77.25-7.55.38-11.35.03-1.09.12-1.71.29-1.88.16-.17.82-.24,1.97-.2l.63.05c.72.06,1.15.15,1.29.29.14.13.21.53.22,1.2-.06,1.45-.11,2.88-.17,4.29-.05,1.42-.08,2.82-.07,4.21-.05,1.39-.1,2.79-.16,4.2-.05,1.42-.09,2.94-.1,4.57ZM553.26,431.13c-.1-2.47-.28-4.86-.54-7.16-.26-2.3-.77-4.64-1.54-7.01-.17-.37-.38-.86-.63-1.47-.25-.61-.56-1.22-.94-1.84-.37-.61-.76-1.15-1.17-1.62-.41-.47-.85-.71-1.33-.72-.54-.02-1.19.47-1.95,1.47-.38.47-.66.94-.86,1.42-1.17,2.73-2.11,5.49-2.8,8.27-.69,2.78-.67,5.72.08,8.82.26,1.21.54,2.46.83,3.73.29,1.28.69,2.52,1.19,3.75.17.43.39.93.67,1.51.28.58.63,1.14,1.03,1.66.41.53.84.98,1.31,1.35.47.38.98.57,1.52.59.72.02,1.46-.4,2.21-1.28.5-.65.89-1.31,1.15-2,.26-.68.53-1.38.79-2.1.34-1.19.56-2.38.66-3.55.1-1.17.2-2.45.31-3.83ZM540.22,443c-.15,4.52-.34,8.97-.57,13.36-.23,4.39-.48,8.85-.75,13.36-.08.6-.18.97-.31,1.12-.13.15-.49.21-1.09.19-.78-.03-1.4-.03-1.85-.02-.45.02-.77-.07-.94-.26-.17-.19-.27-.49-.29-.91-.02-.42.02-1.08.11-1.99.5-6.07.85-12.1,1.04-18.1.19-5.99.3-12.03.32-18.12,0-3.62-.05-7.22-.15-10.81-.09-3.59-.17-7.19-.24-10.81-.04-.66-.06-1.34-.07-2.04,0-.69,0-1.37.02-2.03.02-.48.09-.8.21-.94.12-.15.43-.21.91-.2.9.03,1.58.05,2.03.07.45.01.77.1.94.26.18.16.27.45.29.87.02.42.04,1.09.07,1.99-.02.66-.03,1.31-.02,1.94,0,.63.03,1.28.07,1.95.3.13.48.12.54-.03.06-.15.16-.28.28-.4.7-1.18,1.58-2.27,2.64-3.26,1.06-.99,2.34-1.46,3.84-1.41,1.51.05,2.81.63,3.92,1.75,1.11,1.12,2.06,2.45,2.85,3.98.79,1.53,1.42,3.14,1.88,4.81.46,1.67.79,3.11.99,4.33.71,4.18.91,8.29.59,12.32-.1,1.26-.35,2.75-.73,4.45-.39,1.71-.95,3.3-1.69,4.78-.74,1.48-1.69,2.73-2.83,3.75-1.15,1.02-2.57,1.5-4.25,1.44-1.45-.05-2.68-.48-3.71-1.3-1.03-.82-1.95-1.78-2.75-2.89-.17-.19-.32-.4-.43-.65-.11-.24-.41-.44-.89-.57Z"/>
  <path class="cls-4" d="M491.02,264.02c3.47-1.91,6.6-2.78,9.28-2.78,24.72,0,19.91,52.64,19.91,70.25,0,28.65-.42,23.3-1.04,28.56-.62,5.26-2.58,9.53-5.88,12.83-4.54,4.54-9.48,6.8-14.84,6.8-31.95,0-21.72-29.77-21.65-48.81.13-33.81,3.17-51.11,4.94-56.64,1.33-4.16,4.51-7.58,9.28-10.2M489.92,228.74s-1.11-20.41,6.48-24.74c7.59-4.33,15.32,21.59,15.32,21.59,0,0,17.16-3.28,21.99,5.66,4.83,8.93-17.32,15.28-17.32,15.28,0,0,13.41,13.11,6.67,18.05-6.75,4.94-25.44-14.18-25.44-14.18,0,0-17.62,20.28-23.71,14.57-6.09-5.71,9.52-20.66,9.52-20.66,0,0-16.5-1.56-17.27-8.63-.77-7.06,23.77-6.94,23.77-6.94Z"/>
  <path class="cls-3" d="M680.45,171.02c3.61-4.42,8.9-9.61,13.48-9,7.83,1.04,7.38,17.68,4.87,21.07-1.33,1.79-6.93,3.99-12.96,2.46-11.2-2.83-11.05-7.6-5.39-14.54M364.48,185.81c1.67-.81,3.33-.93,4.98-.34,1.65.57,2.91,1.7,3.78,3.35.8,1.74.89,3.43.33,5.11-.56,1.68-1.67,2.96-3.3,3.85-3.51,1.7-7.06,2.8-10.58,3.35-3.55.53-6.55.73-9.01.57-7.31-.32-13.68-2.82-19.13-7.52-2.69-2.47-4.69-5.42-6.01-8.9-1.34-3.47-1.73-7.3-1.2-11.5,1.55-9.78,6.51-16.51,14.89-20.18,8.16-3.31,17.1-2.9,26.79,1.22,1.71.77,2.89,1.99,3.53,3.65.64,1.66.62,3.35-.06,5.07-.76,1.74-1.94,2.94-3.55,3.61-1.61.69-3.28.67-5.02-.02-3.49-1.5-6.65-2.31-9.46-2.41-2.83-.08-5.21.32-7.19,1.18-3.86,1.56-6.18,4.77-6.98,9.66-.41,3.73.58,6.65,3,8.72,2.62,2.39,6.28,3.77,10.97,4.1,1.78.08,3.88-.06,6.3-.43,2.42-.35,4.73-1.08,6.92-2.17ZM399.3,160.92c2.98-3.75,11.68-1.04,14.26.3,2.58,1.33,3.43,3.84,2.86,6.26-.57,2.42-1.34,4.38-3.28,7.4-1.94,3.01-3.26,3.8-6.61,4.93-3.35,1.13-4,3.16-7.45,2.42-9.84-2.12-4.24-15.68.23-21.3ZM434.53,168.79c-.72,8.82-.25,16.47,1.41,22.94.41,1.85.19,3.55-.68,5.09-.87,1.54-2.19,2.56-3.97,3.06-1.78.45-3.43.26-4.94-.63-1.51-.89-2.52-2.25-3-4.04-.7-2.58-1.22-5.4-1.59-8.44l-.35-3.18-1.47,1.2c-4.85,3.87-9.4,6.47-13.63,7.87-6.34,1.95-12,1.91-16.98-.12-2.54-1.16-4.61-2.72-6.2-4.67-1.59-1.97-2.73-4.14-3.45-6.55-1.3-4.54-1.36-9.29-.17-14.24,1.16-4.95,3.26-9.49,6.24-13.61,3.18-4.12,7.02-6.71,11.53-7.77,4.5-1.05,8.94-1.07,13.28-.02,5.43,1.18,10.39,3.61,14.94,7.28l.45.45.85-.45c1.34-.49,2.69-.59,4.09-.3,1.4.32,2.6,1.03,3.59,2.11.99,1.1,1.47,2.54,1.47,4.32,0,1.07-.1,2.15-.29,3.23l-.74,3-.39,3.47ZM451.33,127.08c1.82,0,3.35.63,4.63,1.93,1.26,1.28,1.9,2.86,1.9,4.71v4.2c0,1.85-.64,3.43-1.9,4.75-1.28,1.3-2.81,1.95-4.63,1.95s-3.31-.65-4.59-1.95c-1.3-1.32-1.94-2.9-1.94-4.75v-4.2c0-1.85.64-3.43,1.94-4.71,1.28-1.3,2.81-1.93,4.59-1.93ZM450.47,150.83c1.86.12,3.37.81,4.57,2.07,1.2,1.28,1.8,2.86,1.84,4.75-.04,1.34-.1,4.46-.17,9.35-.06,4.89-.12,10.37-.16,16.47-.08,4.16-.12,7.38-.12,9.65-.04,2.39-.04,4.44,0,6.13v3.35c.04,1.87-.52,3.49-1.69,4.79-1.14,1.3-2.66,2.01-4.52,2.13-1.84.04-3.41-.53-4.71-1.74-1.28-1.18-1.98-2.72-2.09-4.62-.04-.45-.06-1.01-.06-1.62v-2.25c-.04-1.74-.04-3.83,0-6.25,0-2.31.04-5.56.12-9.76.08-6.07.14-11.58.17-16.47.08-4.89.1-8.05.1-9.47.12-1.89.79-3.43,2.05-4.65,1.24-1.22,2.79-1.83,4.65-1.87ZM512.88,154.31c-4.42,4.36-9.56,9.86-15.37,16.53,2.23,2.43,4.26,4.64,6.13,6.65,1.82,1.93,3.18,3.33,4.11,4.22.93.89,1.53,1.44,1.8,1.68l.62.34c2.19,1.66,3.08,3.95,2.66,6.82-.41,1.85-1.34,3.25-2.81,4.22-1.45.97-3.08,1.26-4.9.93-.52-.12-.99-.26-1.36-.43-.39-.18-.64-.3-.79-.37-.39-.24-.7-.45-.97-.63-.95-.75-2.11-1.79-3.49-3.16-1.4-1.36-2.79-2.82-4.23-4.36-1.67-1.74-3.47-3.67-5.41-5.78-5.49,6.63-9.44,11.87-11.86,15.78-1.03,1.58-2.38,2.54-4.09,2.94-1.71.37-3.35.1-4.94-.87-1.55-1.05-2.52-2.43-2.89-4.12-.39-1.72-.1-3.41.85-5.07,3.18-5.01,7.83-11.16,13.96-18.48-2.15-2.39-4.21-4.69-6.18-6.88-4.32-4.77-7.48-8.24-9.48-10.39-1.26-1.4-1.86-2.98-1.82-4.77.04-1.79.7-3.33,1.98-4.66,1.38-1.26,2.93-1.89,4.67-1.87,1.74.02,3.28.71,4.59,2.05,2.19,2.39,5.64,6.17,10.33,11.38,1.47,1.66,3,3.35,4.55,5.09,5.72-6.47,10.82-11.95,15.33-16.41,1.36-1.28,2.91-1.89,4.65-1.85,1.74.04,3.28.73,4.59,2.09,1.26,1.38,1.86,2.96,1.82,4.73-.04,1.78-.72,3.33-2.05,4.67ZM527.69,147.08c1.86.12,3.37.81,4.57,2.07,1.2,1.28,1.8,2.86,1.84,4.75-.04,1.34-.1,4.46-.17,9.35-.06,4.89-.12,10.37-.16,16.47-.08,4.16-.12,7.38-.12,9.65-.04,2.39-.04,4.44,0,6.13v3.35c.04,1.87-.52,3.49-1.69,4.79-1.14,1.3-2.66,2.01-4.52,2.13-1.84.04-3.41-.53-4.71-1.74-1.28-1.18-1.98-2.72-2.09-4.62-.04-.45-.06-1.01-.06-1.62v-2.25c-.04-1.74-.04-3.83,0-6.25,0-2.31.04-5.56.12-9.76.08-6.07.14-11.58.17-16.47.08-4.89.1-8.05.1-9.47.12-1.89.79-3.43,2.05-4.66,1.24-1.22,2.79-1.83,4.65-1.87ZM528.54,123.33c1.82,0,3.35.63,4.63,1.93,1.26,1.28,1.9,2.86,1.9,4.71v4.2c0,1.85-.64,3.43-1.9,4.75-1.28,1.3-2.81,1.95-4.63,1.95s-3.31-.65-4.59-1.95c-1.3-1.32-1.94-2.9-1.94-4.75v-4.2c0-1.85.64-3.43,1.94-4.71,1.28-1.3,2.81-1.93,4.59-1.93ZM593.05,178.9c1.12,4.12,1.78,8.24,1.92,12.37.15,3.63.21,6.96.17,10v1.1c0,1.85-.62,3.41-1.9,4.71-1.26,1.28-2.81,1.93-4.63,1.93s-3.31-.65-4.59-1.93c-1.28-1.3-1.94-2.86-1.94-4.71v-.63c.04-3.55,0-6.94-.15-10.16-.16-3.21-.62-6.11-1.38-8.7-.37-1.22-.76-2.13-1.16-2.74-.39-.59-.74-.99-1.05-1.18-.12-.08-.33-.18-.62-.28-.31-.12-.76-.18-1.34-.16-.58.02-1.36.16-2.31.38-4.01,1.12-7.21,3.94-9.59,8.44-2.46,4.73-4.23,10.28-5.33,16.59-.64,2.54-1.98,4.16-3.97,4.87-2.02.73-3.95.57-5.82-.45-1.88-1.03-2.93-2.82-3.16-5.4-.04-1.16-.1-2.52-.17-4.1-.16-4.5-.39-9.63-.74-15.37-.27-3.83-.6-7.26-1.03-10.36-.45-3.2-.87-5.19-1.24-6-.64-1.74-.64-3.43,0-5.09.64-1.66,1.82-2.88,3.51-3.65,1.71-.65,3.37-.65,4.98,0,1.61.65,2.79,1.85,3.55,3.59,1.03,2.78,1.74,5.88,2.15,9.31.12.85.23,1.72.35,2.64l.06.41.45-.51c3.18-3.63,7.4-6.23,12.66-7.81,5.58-1.58,10.53-.95,14.89,1.91,2.02,1.42,3.61,3.12,4.77,5.07,1.18,1.97,2.07,3.94,2.68,5.9ZM650.92,169.38c2.04,2.13,3.61,4.54,4.67,7.26,1.09,2.72,1.84,5.42,2.25,8.13.87,5.7,1.2,11.28.97,16.75-.12,3.96-.29,7.48-.52,10.51-.04,1.12-.08,2.11-.15,2.96-.12,1.89-.83,3.41-2.13,4.6-1.32,1.16-2.89,1.74-4.75,1.7-1.82-.16-3.31-.89-4.48-2.23-1.18-1.32-1.72-2.92-1.65-4.75.04-1.01.1-2.09.17-3.23.17-2.94.33-6.21.45-9.82.16-5.09-.12-9.82-.79-14.16-.83-4.32-1.88-7.02-3.12-8.09-.39-.43-.99-.73-1.82-.91-.83-.18-2.07-.02-3.74.43-.5-.04-2.13,1.36-4.88,4.16-2.54,2.82-5,6.25-7.39,10.36-2.38,4.08-4.24,8.01-5.56,11.78-.31.97-.56,1.85-.79,2.66l-.23.99-.23,5.19c-.25,2.62-1.34,4.44-3.26,5.44-1.92,1.01-3.88,1.1-5.87.34-2.02-.77-3.3-2.45-3.88-5.03-.29-2.07-.25-4.3.12-6.69l.12-.59.17-3.69c.95-20.22,1.26-41.91.97-65.07.04-1.89.66-3.47,1.86-4.73,1.22-1.28,2.75-1.95,4.61-2.03,1.82.04,3.35.67,4.59,1.91,1.26,1.22,1.92,2.8,2,4.67.17,13.94.15,26.81-.06,38.54l-.06.93.45-.63c2.05-2.62,4.23-4.95,6.57-7.02,2.33-2.05,4.71-3.47,7.17-4.24,7.31-2.13,13.39-.91,18.24,3.63ZM720.78,173.68c-.72,8.82-.25,16.47,1.41,22.94.41,1.85.19,3.55-.68,5.09-.87,1.54-2.19,2.56-3.97,3.06-1.78.45-3.43.26-4.94-.63-1.51-.89-2.52-2.25-3-4.04-.7-2.58-1.22-5.4-1.59-8.44l-.35-3.18-1.47,1.2c-4.85,3.87-9.4,6.47-13.63,7.87-6.34,1.95-12,1.91-16.98-.12-2.54-1.16-4.61-2.72-6.2-4.67-1.59-1.97-2.73-4.14-3.45-6.55-1.3-4.54-1.36-9.29-.17-14.24,1.16-4.95,3.26-9.49,6.24-13.61,3.18-4.12,7.02-6.71,11.53-7.77,4.5-1.05,8.94-1.07,13.28-.02,5.43,1.18,10.39,3.61,14.94,7.28l.45.45.85-.45c1.34-.49,2.69-.59,4.09-.3,1.4.32,2.6,1.03,3.59,2.11.99,1.1,1.47,2.54,1.47,4.32,0,1.07-.1,2.15-.29,3.23l-.74,3-.39,3.47Z"/>
</svg>