<?xml version="1.0" encoding="UTF-8"?>
<svg id="Camada_1" data-name="Camada 1" xmlns="http://www.w3.org/2000/svg" viewBox="0 0 999.81 999.81">
  <defs>
    <style>
      .cls-1 {
        fill: #f3b4ac;
      }

      .cls-1, .cls-2, .cls-3, .cls-4, .cls-5, .cls-6 {
        fill-rule: evenodd;
      }

      .cls-2, .cls-7 {
        fill: #89b8db;
      }

      .cls-3, .cls-8 {
        fill: #eb6347;
      }

      .cls-4, .cls-9 {
        fill: #6bc183;
      }

      .cls-5 {
        fill: #faae32;
      }

      .cls-6 {
        fill: #f3d90d;
      }
    </style>
  </defs>
  <path class="cls-9" d="M562.36,396.87c1.97-1.35,3.93-2.03,5.9-2.03,4.54,0,8.6,2.89,12.16,8.66.98,1.47,3.25,6.79,6.82,15.94,3.56,9.15,5.65,14.28,6.26,15.38,1.84,2.95,4.67,9.86,8.48,20.73,3.81,10.87,5.71,17.47,5.71,19.81,0,3.19-.92,5.71-2.76,7.55-1.84,1.84-4.42,2.76-7.74,2.76-4.49,0-37.13-1.66-60.25-1.66-2.58,0-4.97-1.11-7.19-3.32-2.21-2.21-3.32-4.61-3.32-7.19,0-3.56,2.27-9.64,6.82-18.24,3.68-6.88,9.15-18.42,16.4-34.64,6.39-14.37,10.62-22.29,12.71-23.77"/>
  <path class="cls-6" d="M824.35,238.7s-.28-5.11,1.62-6.2c1.9-1.08,3.84,5.41,3.84,5.41,0,0,4.3-.82,5.51,1.42,1.21,2.24-4.34,3.83-4.34,3.83,0,0,3.36,3.28,1.67,4.52-1.69,1.24-6.37-3.55-6.37-3.55,0,0-4.41,5.08-5.94,3.65-1.52-1.43,2.38-5.17,2.38-5.17,0,0-4.13-.39-4.32-2.16-.19-1.77,5.95-1.74,5.95-1.74"/>
  <path class="cls-8" d="M851.85,368.83c5.07,3.18,9.9,6.56,14.25,10.42,5.94,5.26,9.01,9.34,10.3,9.34,1.14,0,5.06-2.47,11.79-7.38,11.71-8.55,19.62-14.15,25.05-14.15,17.6,0,11.81,39.73,11.6,49.1-.57,25.18-1.79,39.22-3.64,42.12-2.57,3.91-5.93,5.86-10.07,5.86-16.98,0-12.66-1.35-13.14-14.98-.14-3.91-.38-5.87-.72-5.87-1.14,0-3.86,1.52-8.14,4.56-4.29,3.04-8.79,4.56-13.5,4.56s-8.79-1.52-12.65-4.56c-2.86-2.17-5-3.26-6.43-3.26h-.43c-.22.34-.25,1.58-.54,3.66-1.1,7.79-5.38,7.9-12.39,7.41-4.13-.29-7.29-1.59-9.43-4.78-1.29-1.88-2.18-5.21-2.68-9.99-.5-4.78-.96-14.98-1.39-30.61-.43-10.28-.64-18.16-.64-23.66,0-7.53.88-13.69,1.81-15.86,4.44-10.37,14.62-5.96,21-1.95"/>
  <path class="cls-3" d="M747.07,323.13c.62-6.23,12.1-9.39,15.89-9.75,3.78-.36,6.49,1.8,7.57,4.86,1.08,3.06,1.62,5.76,1.62,10.45s-.9,6.49-3.78,10.09c-2.88,3.6-2.16,6.3-6.48,7.93-12.32,4.62-15.74-14.24-14.81-23.57"/>
  <path class="cls-6" d="M747.58,450.65c-2.13-3.99-2.01-7.38-1.51-8.1.5-.73,3.64-3.87,4.77-3.87s3.76-.24,4.01,1.93c.25,2.18.63,3.39.88,6.17.25,2.78-.38,3.75-1.76,5.82-1.38,1.63-6.4-1.95-6.4-1.95"/>
  <path class="cls-4" d="M592.69,40.59c-1.25-1.25-1.76-5.14-1.5-6.02.25-.88,2.88-2.89,3.64-2.89s3.64-1.13,4.01.75c.38,1.88.75,3.14.75,4.52s-.75,5.02-2.76,5.64c-2.01.63-4.14-2.01-4.14-2.01"/>
  <path class="cls-5" d="M680,71.2s-.85-6.73,1.71-7.4c2.56-.66,4.36,5.22,4.65,6.45.28,1.23,8.16-4.93,8.63-1.61.47,3.32-4.55,5.6-4.55,5.6,0,0,5.88,2.66,3.6,4.74-2.28,2.09-8.82-2.94-8.82-2.94,0,0-1.52,7.11-4.74,6.07-3.22-1.04-.38-7.49-.38-7.49,0,0-7.49,2.37-8.63,0-1.14-2.37,8.54-3.42,8.54-3.42"/>
  <path class="cls-1" d="M879.69,133.5c2.59-3.17,6.39-6.9,9.68-6.46,5.63.75,5.3,12.7,3.5,15.13-.95,1.29-4.98,2.86-9.31,1.77-8.05-2.03-7.94-5.46-3.87-10.44"/>
  <path class="cls-2" d="M627.74,275.14s3.26-10.57,7.93-11.35c4.66-.78,3.73,13.84,3.73,13.84,0,0,9.33,1.55,10.1,6.99.78,5.44-11.66,4.51-11.66,4.51,0,0,4.35,9.17,0,10.42-4.35,1.24-10.26-11.97-10.26-11.97,0,0-12.75,7-14.77,2.95-2.02-4.04,8.71-8.71,8.71-8.71,0,0-8.08-3.89-7.15-7.62s13.37.93,13.37.93"/>
  <path class="cls-4" d="M521.94,144.76c.36-3.61,7.02-5.44,9.21-5.65,2.19-.21,3.76,1.04,4.39,2.82.63,1.78.94,3.34.94,6.06s-.52,3.76-2.19,5.85c-1.67,2.09-1.25,3.65-3.76,4.59-7.14,2.68-9.12-8.25-8.58-13.67"/>
  <path class="cls-6" d="M544.52,247.1c3.11-.12,3.71.48,6.82-11.61,3.11-12.09,10.65-28.25,19.75-38.9,9.1-10.65,21.9-19.03,23.82-24.54,1.92-5.51-3.47-14-14.96-6.82-11.49,7.18-23.34,19.99-30.76,37.35-7.42,17.36-10.53,40.34-9.1,42.25,1.44,1.91,4.43,2.27,4.43,2.27"/>
  <path class="cls-1" d="M933.37,18.17c1.43-2.38,8.72-9.99,23.31,4.92,19.1,19.52,26,34.21,30.65,60.55,1.57,8.88,1.54,16-2.42,16.36-5.77.52-4.06-2.1-9.3-15.04-5.87-14.49-18.34-40.95-30.5-49.66-10.62-7.61-13.32-10.15-11.73-17.13"/>
  <path class="cls-4" d="M967.81,242.55c2.07-1.14,3.93-1.66,5.53-1.66,14.73,0,11.86,31.36,11.86,41.85,0,17.07-.25,13.88-.62,17.02-.37,3.13-1.53,5.68-3.5,7.65-2.7,2.7-5.65,4.05-8.84,4.05-19.04,0-12.94-17.74-12.9-29.08.08-20.14,1.89-30.45,2.94-33.75.79-2.48,2.68-4.52,5.53-6.08"/>
  <path class="cls-3" d="M988.96,359.86c.43-4.34,6.14-7.19,10.84-8.64v32.93c-9.09-.37-11.67-16.04-10.84-24.28"/>
  <path class="cls-4" d="M952.05,187.34c-1.25-1.25-1.76-5.14-1.5-6.02.25-.88,2.88-2.89,3.64-2.89s3.64-1.13,4.01.75c.38,1.88.75,3.14.75,4.52s-.75,5.02-2.76,5.64c-2.01.63-4.14-2.01-4.14-2.01"/>
  <path class="cls-5" d="M803.48,55.29s1.85-16.39,7.54-17.32c5.68-.93,7.27,12.95,7.27,12.95,0,0,16.52-4.1,18.64,1.32,2.12,5.42-15.07,9.65-15.07,9.65,0,0,19.57,10.05,14.01,14.15-5.55,4.1-20.49-8.2-20.49-8.2,0,0-2.25,13.48-8.46,13.09-6.21-.4-.26-15.86-.26-15.86,0,0-12.82,2.91-14.15-.53-1.32-3.44,5.16-8.46,10.97-9.25"/>
  <path class="cls-4" d="M400.48,387.5c2.07-1.14,3.93-1.66,5.53-1.66,14.73,0,11.86,31.36,11.86,41.85,0,17.07-.25,13.88-.62,17.02-.37,3.13-1.53,5.68-3.5,7.65-2.7,2.7-5.65,4.05-8.84,4.05-19.04,0-12.94-17.74-12.9-29.08.08-20.14,1.89-30.45,2.94-33.75.79-2.48,2.68-4.52,5.53-6.08"/>
  <path class="cls-5" d="M282.68,366.9s1.85-16.39,7.54-17.32c5.68-.93,7.27,12.95,7.27,12.95,0,0,16.52-4.1,18.64,1.32,2.12,5.42-15.07,9.65-15.07,9.65,0,0,19.57,10.05,14.01,14.15-5.55,4.1-20.49-8.2-20.49-8.2,0,0-2.25,13.48-8.46,13.09-6.21-.4-.26-15.86-.26-15.86,0,0-12.82,2.91-14.14-.53-1.32-3.44,5.16-8.46,10.97-9.25"/>
  <path class="cls-8" d="M370.92,153.39c5.07,3.18,9.9,6.56,14.25,10.42,5.94,5.26,9.01,9.34,10.3,9.34,1.14,0,5.06-2.47,11.79-7.38,11.71-8.55,19.62-14.15,25.05-14.15,17.6,0,11.81,39.73,11.6,49.1-.57,25.18-1.79,39.22-3.64,42.12-2.57,3.91-5.93,5.86-10.07,5.86-16.98,0-12.66-1.35-13.14-14.98-.14-3.91-.38-5.87-.72-5.87-1.14,0-3.86,1.52-8.14,4.56-4.29,3.04-8.79,4.56-13.5,4.56s-8.79-1.52-12.65-4.56c-2.86-2.17-5-3.26-6.43-3.26h-.43c-.22.34-.25,1.58-.54,3.66-1.1,7.79-5.38,7.9-12.39,7.41-4.13-.29-7.29-1.59-9.43-4.78-1.29-1.88-2.18-5.21-2.68-9.99-.5-4.78-.96-14.98-1.39-30.61-.43-10.28-.64-18.16-.64-23.66,0-7.53.88-13.69,1.81-15.86,4.44-10.37,14.62-5.96,21-1.95"/>
  <path class="cls-6" d="M67.2,155.36c-2.13-3.99-2.01-7.38-1.51-8.1.5-.73,3.64-3.87,4.77-3.87s3.76-.24,4.01,1.94c.25,2.18.63,3.39.88,6.17.25,2.78-.38,3.75-1.76,5.82-1.38,1.63-6.4-1.95-6.4-1.95"/>
  <path class="cls-5" d="M393.69,81.34s1.85-16.39,7.54-17.32c5.68-.93,7.27,12.95,7.27,12.95,0,0,16.52-4.1,18.64,1.32,2.12,5.42-15.07,9.65-15.07,9.65,0,0,19.57,10.05,14.01,14.15-5.55,4.1-20.49-8.2-20.49-8.2,0,0-2.25,13.48-8.46,13.09-6.21-.4-.26-15.86-.26-15.86,0,0-12.82,2.91-14.15-.53-1.32-3.44,5.16-8.46,10.97-9.25"/>
  <path class="cls-9" d="M158.24,2.35c1.97-1.35,3.93-2.03,5.9-2.03,4.54,0,8.6,2.89,12.16,8.66.98,1.47,3.26,6.79,6.82,15.94,3.56,9.15,5.65,14.28,6.26,15.38,1.84,2.95,4.67,9.86,8.47,20.73,3.81,10.87,5.71,17.47,5.71,19.81,0,3.19-.92,5.71-2.76,7.55-1.84,1.84-4.42,2.76-7.74,2.76-4.49,0-37.13-1.66-60.25-1.66-2.58,0-4.97-1.11-7.19-3.32-2.21-2.21-3.32-4.61-3.32-7.19,0-3.56,2.27-9.64,6.82-18.24,3.68-6.88,9.15-18.42,16.4-34.64,6.39-14.37,10.62-22.29,12.71-23.77"/>
  <path class="cls-6" d="M158.13,266.57s-.28-5.11,1.62-6.2c1.9-1.08,3.84,5.41,3.84,5.41,0,0,4.3-.82,5.51,1.42,1.21,2.24-4.34,3.83-4.34,3.83,0,0,3.36,3.28,1.67,4.52-1.69,1.24-6.37-3.55-6.37-3.55,0,0-4.41,5.08-5.94,3.65-1.52-1.43,2.38-5.17,2.38-5.17,0,0-4.13-.39-4.32-2.16-.19-1.77,5.95-1.74,5.95-1.74"/>
  <path class="cls-1" d="M112.52,315c1.43-2.38,8.72-9.99,23.31,4.92,19.1,19.52,26,34.21,30.65,60.55,1.57,8.88,1.54,16-2.42,16.36-5.77.52-4.06-2.1-9.3-15.04-5.87-14.49-18.34-40.95-30.5-49.66-10.62-7.61-13.32-10.15-11.74-17.13"/>
  <path class="cls-3" d="M0,351.22c2.04-.63,3.9-1,5.04-1.11,3.78-.36,6.49,1.8,7.57,4.86,1.08,3.06,1.62,5.76,1.62,10.45s-.9,6.49-3.78,10.09c-2.88,3.6-2.16,6.3-6.48,7.93-1.44.54-2.76.76-3.96.71v-32.93Z"/>
  <path class="cls-6" d="M68.27,477.42c-2.13-3.99-2.01-7.38-1.51-8.1.5-.73,3.64-3.87,4.77-3.87s3.76-.24,4.01,1.93c.25,2.18.63,3.39.88,6.17.25,2.78-.38,3.75-1.76,5.82-1.38,1.63-6.4-1.95-6.4-1.95"/>
  <path class="cls-5" d="M163.66,453.47s-.85-6.73,1.71-7.4c2.56-.66,4.36,5.22,4.65,6.45.28,1.23,8.16-4.93,8.63-1.61.47,3.32-4.55,5.6-4.55,5.6,0,0,5.88,2.66,3.6,4.74-2.28,2.09-8.82-2.94-8.82-2.94,0,0-1.52,7.11-4.74,6.07-3.22-1.04-.38-7.49-.38-7.49,0,0-7.49,2.37-8.63,0-1.14-2.37,8.54-3.42,8.54-3.42"/>
  <path class="cls-1" d="M155.27,184.73c2.59-3.17,6.39-6.9,9.68-6.46,5.63.75,5.3,12.7,3.5,15.13-.95,1.29-4.98,2.86-9.31,1.77-8.05-2.03-7.94-5.46-3.87-10.44"/>
  <path class="cls-6" d="M260.13,183.42c3.11-.12,3.71.48,6.82-11.61,3.11-12.09,10.65-28.25,19.75-38.9,9.1-10.65,21.9-19.03,23.82-24.54,1.92-5.51-3.47-14-14.96-6.82-11.49,7.18-23.34,19.99-30.76,37.34-7.42,17.36-10.53,40.34-9.1,42.25,1.44,1.92,4.43,2.27,4.43,2.27"/>
  <path class="cls-1" d="M571.73,836.86c1.43-2.38,8.72-9.99,23.31,4.92,19.1,19.52,26,34.21,30.65,60.55,1.57,8.88,1.54,16-2.42,16.36-5.77.52-4.06-2.1-9.3-15.04-5.87-14.49-18.34-40.95-30.5-49.66-10.62-7.61-13.32-10.15-11.73-17.13"/>
  <path class="cls-4" d="M950.97,865.09c-1.25-1.25-1.76-5.14-1.5-6.02s2.88-2.89,3.64-2.89,3.64-1.13,4.01.75c.38,1.88.75,3.14.75,4.52s-.75,5.02-2.76,5.64c-2.01.63-4.14-2.01-4.14-2.01"/>
  <path class="cls-2" d="M802.02,796.59s3.26-10.57,7.93-11.35c4.66-.78,3.73,13.84,3.73,13.84,0,0,9.33,1.55,10.1,7,.78,5.44-11.66,4.51-11.66,4.51,0,0,4.35,9.17,0,10.41-4.35,1.24-10.26-11.97-10.26-11.97,0,0-12.75,7-14.77,2.95-2.02-4.04,8.71-8.71,8.71-8.71,0,0-8.08-3.89-7.15-7.62.93-3.73,13.37.93,13.37.93"/>
  <path class="cls-6" d="M877.04,952.73c3.11-.12,3.71.48,6.82-11.61,3.11-12.09,10.65-28.25,19.75-38.9,9.1-10.65,21.9-19.03,23.82-24.54,1.92-5.51-3.47-14-14.96-6.82-11.49,7.18-23.34,19.99-30.76,37.34-7.42,17.36-10.53,40.34-9.1,42.25,1.44,1.91,4.43,2.27,4.43,2.27"/>
  <path class="cls-4" d="M887.83,767.1c.36-3.61,7.02-5.44,9.21-5.65,2.19-.21,3.76,1.04,4.39,2.82.63,1.78.94,3.34.94,6.06s-.52,3.76-2.19,5.85c-1.67,2.09-1.25,3.65-3.76,4.59-7.14,2.68-9.12-8.25-8.58-13.67"/>
  <path class="cls-9" d="M718.36,890.19c1.96-1.35,3.93-2.03,5.9-2.03,4.54,0,8.6,2.89,12.16,8.66.98,1.47,3.26,6.79,6.82,15.94,3.56,9.15,5.65,14.28,6.26,15.38,1.84,2.95,4.67,9.86,8.48,20.73,3.81,10.87,5.71,17.47,5.71,19.81,0,3.19-.92,5.71-2.76,7.55-1.84,1.84-4.42,2.76-7.74,2.76-4.49,0-37.13-1.66-60.25-1.66-2.58,0-4.97-1.11-7.19-3.32-2.21-2.21-3.32-4.61-3.32-7.19,0-3.56,2.27-9.64,6.82-18.24,3.68-6.88,9.15-18.42,16.4-34.64,6.39-14.37,10.62-22.29,12.71-23.77"/>
  <path class="cls-4" d="M838.11,560.01c2.07-1.14,3.93-1.66,5.53-1.66,14.73,0,11.86,31.36,11.86,41.85,0,17.07-.25,13.88-.62,17.02-.37,3.13-1.54,5.68-3.5,7.65-2.7,2.7-5.65,4.05-8.84,4.05-19.04,0-12.94-17.74-12.9-29.08.08-20.14,1.89-30.45,2.94-33.75.79-2.48,2.68-4.52,5.53-6.08"/>
  <path class="cls-6" d="M892.32,670.26s-.28-5.11,1.62-6.2c1.9-1.08,3.84,5.41,3.84,5.41,0,0,4.3-.82,5.51,1.42,1.21,2.24-4.34,3.83-4.34,3.83,0,0,3.36,3.28,1.67,4.52-1.69,1.24-6.37-3.55-6.37-3.55,0,0-4.41,5.08-5.94,3.65-1.52-1.43,2.38-5.17,2.38-5.17,0,0-4.13-.39-4.32-2.16-.19-1.77,5.95-1.74,5.95-1.74"/>
  <path class="cls-8" d="M689.13,672.91c5.07,3.18,9.9,6.56,14.25,10.42,5.94,5.26,9.01,9.34,10.3,9.34,1.14,0,5.06-2.47,11.79-7.38,11.71-8.55,19.62-14.15,25.05-14.15,17.6,0,11.81,39.73,11.6,49.1-.57,25.18-1.79,39.22-3.64,42.12-2.57,3.91-5.93,5.86-10.07,5.86-16.98,0-12.66-1.35-13.14-14.98-.14-3.91-.38-5.87-.72-5.87-1.14,0-3.86,1.52-8.14,4.56-4.29,3.04-8.79,4.56-13.5,4.56s-8.79-1.52-12.65-4.56c-2.86-2.17-5-3.26-6.43-3.26h-.43c-.22.34-.25,1.58-.54,3.67-1.1,7.79-5.38,7.9-12.39,7.41-4.13-.29-7.29-1.59-9.43-4.78-1.29-1.88-2.18-5.21-2.68-9.99-.5-4.78-.96-14.98-1.39-30.61-.43-10.28-.64-18.16-.64-23.66,0-7.53.88-13.69,1.81-15.86,4.44-10.37,14.62-5.96,21-1.95"/>
  <path class="cls-6" d="M661.14,818.97c-2.13-3.99-2.01-7.38-1.51-8.1.5-.73,3.64-3.87,4.77-3.87s3.76-.24,4.01,1.94c.25,2.18.63,3.39.88,6.17.25,2.78-.38,3.75-1.76,5.82-1.38,1.63-6.4-1.95-6.4-1.95"/>
  <path class="cls-5" d="M715.77,544.42s-.85-6.73,1.71-7.4c2.56-.66,4.36,5.22,4.65,6.45.28,1.23,8.16-4.93,8.63-1.61.47,3.32-4.55,5.6-4.55,5.6,0,0,5.88,2.66,3.6,4.74-2.28,2.09-8.82-2.94-8.82-2.94,0,0-1.52,7.11-4.74,6.07-3.22-1.04-.38-7.49-.38-7.49,0,0-7.49,2.37-8.63,0-1.14-2.37,8.54-3.42,8.54-3.42"/>
  <path class="cls-5" d="M537.38,935.61s1.85-16.39,7.54-17.32c5.68-.93,7.27,12.95,7.27,12.95,0,0,16.52-4.1,18.64,1.32,2.12,5.42-15.07,9.65-15.07,9.65,0,0,19.57,10.05,14.01,14.15-5.55,4.1-20.49-8.2-20.49-8.2,0,0-2.25,13.48-8.46,13.09-6.21-.4-.26-15.86-.26-15.86,0,0-12.82,2.91-14.15-.53-1.32-3.44,5.16-8.46,10.97-9.25"/>
  <path class="cls-1" d="M888.6,513.08c2.59-3.17,6.39-6.9,9.68-6.46,5.63.75,5.3,12.7,3.5,15.13-.95,1.29-4.98,2.86-9.31,1.77-8.05-2.03-7.94-5.46-3.87-10.44"/>
  <path class="cls-2" d="M544.46,714.09s3.26-10.57,7.93-11.35c4.66-.78,3.73,13.84,3.73,13.84,0,0,9.33,1.55,10.1,7,.78,5.44-11.66,4.51-11.66,4.51,0,0,4.35,9.17,0,10.42-4.35,1.24-10.26-11.97-10.26-11.97,0,0-12.75,6.99-14.77,2.95-2.02-4.04,8.71-8.71,8.71-8.71,0,0-8.08-3.89-7.15-7.62.93-3.73,13.37.93,13.37.93"/>
  <path class="cls-4" d="M492.68,329.63c.36-3.61,7.02-5.44,9.21-5.65,2.19-.21,3.76,1.04,4.39,2.82.63,1.78.94,3.34.94,6.06s-.52,3.76-2.19,5.85c-1.67,2.09-1.25,3.66-3.76,4.59-7.14,2.68-9.12-8.25-8.58-13.67"/>
  <path class="cls-6" d="M565.72,615.29c3.11-.12,3.71.48,6.82-11.61,3.11-12.09,10.65-28.25,19.75-38.9,9.1-10.65,21.9-19.03,23.82-24.54,1.92-5.51-3.47-14-14.96-6.82-11.49,7.18-23.34,19.99-30.76,37.34-7.42,17.36-10.53,40.34-9.1,42.25,1.44,1.91,4.43,2.27,4.43,2.27"/>
  <path class="cls-9" d="M451.31,643.87c1.97-1.35,3.93-2.03,5.9-2.03,4.54,0,8.6,2.89,12.16,8.66.98,1.47,3.25,6.79,6.82,15.94,3.56,9.15,5.65,14.28,6.26,15.38,1.84,2.95,4.67,9.86,8.47,20.73,3.81,10.87,5.71,17.47,5.71,19.81,0,3.19-.92,5.71-2.76,7.55-1.84,1.84-4.42,2.76-7.74,2.76-4.49,0-37.13-1.66-60.25-1.66-2.58,0-4.97-1.11-7.19-3.32-2.21-2.21-3.32-4.61-3.32-7.19,0-3.56,2.27-9.64,6.82-18.24,3.68-6.88,9.15-18.42,16.4-34.64,6.39-14.37,10.62-22.29,12.71-23.77"/>
  <path class="cls-4" d="M210.62,768.24c2.07-1.14,3.93-1.66,5.53-1.66,14.73,0,11.86,31.36,11.86,41.85,0,17.07-.25,13.88-.62,17.02-.37,3.13-1.54,5.68-3.5,7.65-2.7,2.7-5.65,4.05-8.84,4.05-19.04,0-12.94-17.74-12.9-29.08.08-20.14,1.89-30.45,2.94-33.75.79-2.48,2.68-4.52,5.53-6.08"/>
  <path class="cls-6" d="M261.79,954.97s-.28-5.11,1.62-6.2c1.9-1.08,3.84,5.41,3.84,5.41,0,0,4.3-.82,5.51,1.42,1.21,2.24-4.34,3.83-4.34,3.83,0,0,3.36,3.28,1.67,4.52-1.69,1.24-6.37-3.55-6.37-3.55,0,0-4.41,5.08-5.94,3.65-1.52-1.43,2.38-5.17,2.38-5.17,0,0-4.13-.39-4.32-2.16-.19-1.77,5.95-1.74,5.95-1.74"/>
  <path class="cls-3" d="M212.05,687.78c.62-6.23,12.1-9.39,15.89-9.75,3.78-.36,6.49,1.8,7.57,4.86,1.08,3.06,1.62,5.76,1.62,10.45s-.9,6.49-3.78,10.09c-2.88,3.6-2.16,6.3-6.48,7.93-12.32,4.62-15.74-14.24-14.81-23.57"/>
  <path class="cls-5" d="M55.96,864.55s-.85-6.73,1.71-7.4c2.56-.66,4.36,5.22,4.65,6.45.28,1.23,8.16-4.93,8.63-1.61.47,3.32-4.55,5.6-4.55,5.6,0,0,5.88,2.66,3.6,4.74-2.28,2.09-8.82-2.94-8.82-2.94,0,0-1.52,7.11-4.74,6.07-3.22-1.04-.38-7.49-.38-7.49,0,0-7.49,2.37-8.63,0-1.14-2.37,8.54-3.42,8.54-3.42"/>
  <path class="cls-1" d="M167.03,931.99c2.59-3.17,6.39-6.9,9.68-6.46,5.63.75,5.3,12.7,3.5,15.13-.95,1.29-4.98,2.86-9.31,1.77-8.05-2.03-7.94-5.46-3.87-10.44"/>
  <path class="cls-4" d="M456.21,548.28c.36-3.61,7.02-5.44,9.21-5.65,2.19-.21,3.76,1.04,4.39,2.82.63,1.78.94,3.34.94,6.06s-.52,3.76-2.19,5.85c-1.67,2.09-1.25,3.65-3.76,4.59-7.14,2.68-9.12-8.25-8.58-13.67"/>
  <path class="cls-8" d="M275.33,547.04c5.07,3.18,9.9,6.56,14.25,10.42,5.94,5.26,9.01,9.34,10.3,9.34,1.14,0,5.06-2.47,11.79-7.38,11.71-8.55,19.62-14.15,25.05-14.15,17.6,0,11.81,39.73,11.6,49.1-.57,25.18-1.79,39.22-3.64,42.12-2.57,3.91-5.93,5.86-10.07,5.86-16.98,0-12.66-1.35-13.14-14.98-.14-3.91-.38-5.87-.72-5.87-1.14,0-3.86,1.52-8.14,4.56-4.29,3.04-8.79,4.56-13.5,4.56s-8.79-1.52-12.65-4.56c-2.86-2.17-5-3.26-6.43-3.26h-.43c-.22.34-.25,1.58-.54,3.66-1.1,7.79-5.38,7.9-12.39,7.41-4.13-.29-7.29-1.59-9.43-4.78-1.29-1.88-2.18-5.21-2.68-9.99-.5-4.78-.96-14.98-1.39-30.61-.43-10.28-.64-18.16-.64-23.66,0-7.53.88-13.69,1.81-15.86,4.44-10.37,14.62-5.96,21-1.95"/>
  <path class="cls-2" d="M79.71,744.16s3.26-10.57,7.93-11.35c4.66-.78,3.73,13.84,3.73,13.84,0,0,9.33,1.55,10.1,7,.78,5.44-11.66,4.51-11.66,4.51,0,0,4.35,9.17,0,10.41-4.35,1.24-10.26-11.97-10.26-11.97,0,0-12.75,7-14.77,2.95-2.02-4.04,8.71-8.71,8.71-8.71,0,0-8.08-3.89-7.15-7.62s13.37.93,13.37.93"/>
  <path class="cls-1" d="M125.56,519.55c1.43-2.38,8.72-9.99,23.31,4.92,19.1,19.52,26,34.21,30.65,60.55,1.57,8.88,1.54,16-2.42,16.36-5.77.52-4.06-2.1-9.3-15.04-5.87-14.49-18.34-40.95-30.5-49.66-10.62-7.61-13.32-10.15-11.73-17.13"/>
  <path class="cls-3" d="M306.15,812.86c.62-6.23,12.1-9.39,15.89-9.75,3.78-.36,6.49,1.8,7.57,4.86,1.08,3.06,1.62,5.76,1.62,10.45s-.9,6.49-3.78,10.09c-2.88,3.6-2.16,6.3-6.48,7.93-12.32,4.62-15.74-14.24-14.81-23.57"/>
  <path class="cls-4" d="M36.72,515.56c-1.25-1.25-1.76-5.14-1.51-6.02.25-.88,2.88-2.89,3.64-2.89s3.64-1.13,4.01.75c.38,1.88.75,3.14.75,4.52s-.75,5.02-2.76,5.64c-2.01.63-4.14-2.01-4.14-2.01"/>
  <path class="cls-7" d="M412.38,861.89c5.7-2.38,12.16-3.58,17.81-3.93,7.72-.47,15.41,2.11,16.82,7.66,5.08,19.86-21.26,18.79-21.73,34.03-.55,18.07,26.53,9.8,17.45,37.76-1.64,5.05-6.35,8.68-15.74,8.68s-18.28-2.63-26.55-7.88c-8.27-5.25-13.87-12.09-16.81-20.49-1.55-4.08-2.32-8.72-2.32-13.91,0-8.41,1.93-15.7,5.8-21.88,2.63-3.96,6.38-7.88,11.25-11.78,4.87-3.89,9.63-6.42,14.03-8.25"/>
  <path class="cls-7" d="M998.57,600.84c.41-.17.82-.34,1.24-.5v82.82c-4.55-1.31-8.94-3.32-13.18-6.01-8.27-5.25-13.87-12.09-16.81-20.49-1.55-4.08-2.32-8.72-2.32-13.91,0-8.41,1.93-15.7,5.8-21.88,2.63-3.96,6.38-7.88,11.25-11.78,4.87-3.89,9.63-6.42,14.03-8.25"/>
  <path class="cls-7" d="M0,600.35c5.39-2.06,11.32-3.11,16.57-3.44,7.72-.47,15.41,2.11,16.82,7.66,5.08,19.86-21.26,18.79-21.73,34.03-.55,18.07,26.53,9.8,17.45,37.76-1.64,5.05-6.35,8.68-15.74,8.68-4.59,0-9.05-.62-13.37-1.87v-82.82Z"/>
  <path class="cls-7" d="M47.49,935.64c5.7-2.38,12.16-3.59,17.81-3.93,7.72-.47,15.41,2.11,16.82,7.66,5.08,19.86-21.26,18.79-21.73,34.03-.46,15.02,18.18,11.84,19.26,26.41H22.86c-1.71-2.58-3.09-5.37-4.13-8.35-1.55-4.08-2.32-8.72-2.32-13.91,0-8.41,1.93-15.7,5.8-21.88,2.63-3.96,6.38-7.88,11.25-11.78,4.87-3.89,9.63-6.42,14.03-8.25"/>
  <path class="cls-7" d="M79.65,0c.22,2.95-.28,6.63-1.81,11.34-1.64,5.05-6.35,8.68-15.74,8.68s-18.28-2.63-26.55-7.88c-5.34-3.39-9.56-7.44-12.68-12.14h56.78Z"/>
  <path class="cls-7" d="M719.25,121.58c5.7-2.38,12.16-3.58,17.81-3.93,7.72-.47,15.41,2.11,16.82,7.66,5.08,19.86-21.26,18.79-21.73,34.03-.55,18.07,26.53,9.8,17.45,37.76-1.64,5.05-6.35,8.68-15.74,8.68s-18.28-2.63-26.55-7.88c-8.27-5.25-13.87-12.09-16.81-20.49-1.55-4.08-2.32-8.72-2.32-13.91,0-8.41,1.93-15.7,5.8-21.88,2.63-3.96,6.38-7.88,11.25-11.78,4.87-3.89,9.63-6.42,14.03-8.25"/>
</svg>