<?xml version="1.0" encoding="UTF-8"?>
<svg id="Camada_1" data-name="Camada 1" xmlns="http://www.w3.org/2000/svg" viewBox="0 0 251.38 373.26">
  <defs>
    <style>
      .cls-1 {
        fill: #f3b4ac;
      }

      .cls-1, .cls-2, .cls-3, .cls-4, .cls-5, .cls-6 {
        fill-rule: evenodd;
      }

      .cls-2 {
        fill: #89b8db;
      }

      .cls-3, .cls-7 {
        fill: #eb6347;
      }

      .cls-4 {
        fill: #6bc183;
      }

      .cls-5 {
        fill: #faae32;
      }

      .cls-6 {
        fill: #f3d90d;
      }
    </style>
  </defs>
  <path class="cls-6" d="M139.73,151.26c4.06-.16,4.84.62,8.9-15.14,4.06-15.76,13.89-36.83,25.75-50.72,11.86-13.89,28.56-24.81,31.06-31.99,2.5-7.18-4.53-18.26-19.51-8.9-14.98,9.36-30.43,26.06-40.11,48.69-9.68,22.63-13.73,52.59-11.86,55.09,1.87,2.5,5.77,2.97,5.77,2.97"/>
  <path class="cls-1" d="M20.94,6.82c2.4-3.99,14.64-16.77,39.12,8.25,32.06,32.76,43.65,57.42,51.44,101.62,2.63,14.9,2.59,26.86-4.06,27.46-9.69.88-6.81-3.52-15.61-25.24-9.86-24.33-30.78-68.72-51.19-83.35C22.8,22.79,18.27,18.53,20.94,6.82"/>
  <path class="cls-3" d="M103.28,12.28c.45-4.52,8.77-6.81,11.52-7.07,2.74-.26,4.7,1.31,5.49,3.53s1.18,4.18,1.18,7.57-.65,4.7-2.74,7.31c-2.09,2.61-1.57,4.57-4.7,5.75-8.93,3.35-11.41-10.32-10.73-17.09"/>
  <path class="cls-2" d="M135.95,60.63c.52-.76,3.79-4.03,4.96-4.03s3.92-.25,4.18,2.01c.26,2.27.65,3.52.91,6.42.26,2.9-.39,3.9-1.83,6.06-2.81,3.32-11.2-6.16-8.23-10.47"/>
  <path class="cls-4" d="M119.72,98.09c-1.31-1.31-1.83-5.35-1.57-6.27.26-.91,3-3,3.79-3s3.79-1.18,4.18.78c.39,1.96.78,3.26.78,4.7s-.78,5.22-2.87,5.88c-2.09.65-4.31-2.09-4.31-2.09"/>
  <path class="cls-5" d="M148.68,22.33s-.89-7.01,1.78-7.7c2.67-.69,4.54,5.43,4.84,6.71.3,1.28,8.49-5.13,8.99-1.68.49,3.46-4.74,5.83-4.74,5.83,0,0,6.12,2.76,3.75,4.94-2.37,2.17-9.18-3.06-9.18-3.06,0,0-1.58,7.41-4.94,6.32-3.36-1.09-.39-7.8-.39-7.8,0,0-7.8,2.47-8.99,0-1.18-2.47,8.89-3.56,8.89-3.56"/>
  <path class="cls-5" d="M34.79,79.64s1.5-13.26,6.09-14c4.6-.75,5.88,10.48,5.88,10.48,0,0,13.36-3.31,15.07,1.07,1.71,4.38-12.19,7.8-12.19,7.8,0,0,15.82,8.12,11.33,11.44-4.49,3.31-16.57-6.63-16.57-6.63,0,0-1.82,10.9-6.84,10.58-5.02-.32-.21-12.83-.21-12.83,0,0-10.37,2.35-11.44-.43-1.07-2.78,4.17-6.84,8.87-7.48"/>
  <path class="cls-1" d="M223.66,60.49c2.7-3.3,6.66-7.18,10.08-6.73,5.86.78,5.52,13.22,3.64,15.76-.99,1.34-5.19,2.98-9.69,1.84-8.38-2.11-8.27-5.69-4.03-10.87"/>
  <path class="cls-5" d="M189.91,92.74s3.4-11.01,8.25-11.81c4.85-.81,3.88,14.4,3.88,14.4,0,0,9.71,1.62,10.52,7.28.81,5.66-12.14,4.69-12.14,4.69,0,0,4.53,9.55,0,10.84-4.53,1.29-10.68-12.46-10.68-12.46,0,0-13.27,7.28-15.37,3.08-2.1-4.21,9.06-9.06,9.06-9.06,0,0-8.42-4.05-7.44-7.93.97-3.88,13.92.97,13.92.97"/>
  <path class="cls-4" d="M13.91,42.86c.26-2.62,5.09-3.95,6.68-4.1,1.59-.15,2.73.76,3.18,2.04.45,1.29.68,2.42.68,4.39s-.38,2.73-1.59,4.24c-1.21,1.51-.91,2.65-2.73,3.33-5.18,1.94-6.61-5.98-6.22-9.91"/>
  <path class="cls-7" d="M59.2,125.95c13.16,8.26,25.69,17.03,36.98,27.04,15.41,13.66,23.39,24.25,26.72,24.25,2.97,0,13.14-6.41,30.59-19.15,30.38-22.18,50.91-36.72,65-36.72,45.66,0,30.65,103.1,30.1,127.41-1.48,65.34-4.63,101.77-9.45,109.28-6.67,10.14-15.39,15.21-26.14,15.21-44.06,0-34.2-22.93-35.44-58.3-.36-10.14-.98-15.22-1.86-15.22-2.97,0-10.01,3.94-21.13,11.83-11.12,7.89-22.8,11.83-35.04,11.83s-22.74-4.02-32.81-11.83c-7.36-5.71-12.98-8.45-16.68-8.45h-1.11c-.58.88.7,23.53-.06,28.94-2.87,20.22-13.96,20.5-32.15,19.23-10.73-.75-18.91-4.13-24.47-12.39-3.34-4.88-5.65-13.52-6.95-25.91-1.3-12.39-2.5-38.87-3.61-79.42-1.11-26.66-1.67-47.13-1.67-61.4,0-19.53,2.29-35.51,4.7-41.15,11.51-26.91,37.92-15.47,54.5-5.07"/>
</svg>